#!OML:ASF E:\Style4\Style4.ASF
:FULLY-SPECIFIED
:DEGREES
1433
root 0.221765 17.7894 -0.019421 -1.61004 -2.85136 1.71598
lowerback 4.29556 2.02608 -1.52179
upperback 0.973943 2.62437 -0.412453
thorax -1.45463 1.31496 0.284607
lowerneck -6.30625 -4.34387 -4.83342
upperneck 23.4101 -5.69509 1.60664
head 8.49474 -2.95185 0.829559
rclavicle 3.40729e-015 6.33626e-015
rhumerus 66.7924 -8.24949 -26.5546
rradius 48.4191
rwrist -16.875
rhand 53.6443 -6.8351
rfingers 7.12502
rthumb 72.1323 5.80111
lclavicle 3.40729e-015 6.33626e-015
lhumerus 68.1959 3.67444 35.0048
lradius 60.8163
lwrist 0.150346
lhand 30.2074 43.5226
lfingers 7.12502
lthumb 53.8933 62.4325
rfemur -7.35315 -0.592656 16.0696
rtibia 29.834
rfoot -17.9506 -17.1806
rtoes -19.4628
lfemur -5.71062 -0.175899 -20.6569
ltibia 28.1399
lfoot -20.8525 9.75734
ltoes -16.7533
1434
root 0.221438 17.8003 0.0154796 -1.50181 -2.82356 1.68136
lowerback 4.18813 2.03933 -1.40659
upperback 0.689197 2.64528 -0.47094
thorax -1.67929 1.32707 0.15663
lowerneck -6.25774 -4.37733 -4.79542
upperneck 23.7279 -5.76004 1.61809
head 8.59588 -2.97953 0.819487
rclavicle 1.82696e-014 7.45443e-017
rhumerus 66.9857 -9.10652 -26.687
rradius 48.3051
rwrist -17.1958
rhand 54.0736 -7.19348
rfingers 7.12502
rthumb 72.3585 6.58221
lclavicle 1.82696e-014 7.45443e-017
lhumerus 68.6206 4.44269 35.0026
lradius 60.7096
lwrist 0.223247
lhand 30.0117 43.4406
lfingers 7.12502
lthumb 53.7175 62.4679
rfemur -7.13423 -0.491195 16.1247
rtibia 29.4476
rfoot -17.8791 -17.2974
rtoes -19.2887
lfemur -5.39994 -0.300434 -20.6424
ltibia 27.6129
lfoot -20.779 9.91585
ltoes -17.6883
1435
root 0.223257 17.8086 0.0510322 -1.42349 -2.84338 1.74834
lowerback 4.06596 1.99326 -1.45049
upperback 0.553089 2.58339 -0.444706
thorax -1.75298 1.29743 0.212972
lowerneck -6.60564 -4.37085 -4.96611
upperneck 24.0155 -5.70383 1.57074
head 8.76197 -2.9705 0.826721
rclavicle -1.28907e-014 1.60767e-014
rhumerus 67.543 -10.0453 -26.9161
rradius 48.2205
rwrist -17.131
rhand 53.8044 -7.30013
rfingers 7.12502
rthumb 72.2175 5.75748
lclavicle -1.28907e-014 1.60767e-014
lhumerus 68.8753 5.60382 34.9783
lradius 60.6342
lwrist 0.312939
lhand 29.856 43.5512
lfingers 7.12502
lthumb 53.5774 62.671
rfemur -6.91362 -0.386445 16.048
rtibia 29.1106
rfoot -17.8081 -17.3828
rtoes -19.2808
lfemur -5.04814 -0.375246 -20.7515
ltibia 27.0934
lfoot -20.8109 10.0926
ltoes -18.4299
1436
root 0.222717 17.8168 0.0853401 -1.34202 -2.85461 1.84592
lowerback 3.95735 1.96062 -1.56045
upperback 0.375633 2.53515 -0.453777
thorax -1.87806 1.27551 0.267721
lowerneck -6.85494 -4.38229 -4.97463
upperneck 24.3203 -5.68104 1.43432
head 8.9095 -2.97318 0.77587
rclavicle -1.48568e-014 1.78906e-015
rhumerus 68.051 -10.9037 -27.093
rradius 48.0745
rwrist -17.0509
rhand 53.15 -7.42238
rfingers 7.12502
rthumb 71.8631 3.93818
lclavicle -1.48568e-014 1.78906e-015
lhumerus 69.1966 6.71752 34.9035
lradius 60.4774
lwrist 0.233199
lhand 29.9588 43.4225
lfingers 7.12502
lthumb 53.6699 62.4813
rfemur -6.69712 -0.262029 15.9549
rtibia 28.7885
rfoot -17.881 -17.3714
rtoes -18.746
lfemur -4.74047 -0.453102 -20.8826
ltibia 26.6037
lfoot -20.7757 10.2011
ltoes -18.4012
1437
root 0.222117 17.8251 0.11969 -1.24257 -2.86186 1.94392
lowerback 3.823 1.90008 -1.67027
upperback 0.217826 2.45007 -0.48712
thorax -1.96661 1.23509 0.30102
lowerneck -7.22418 -4.33371 -4.85279
upperneck 24.6515 -5.57629 1.24456
head 9.08032 -2.93072 0.690346
rclavicle 8.82029e-015 -2.5345e-015
rhumerus 68.6802 -11.7409 -27.4441
rradius 47.8799
rwrist -16.8834
rhand 52.8449 -7.28719
rfingers 7.12502
rthumb 71.6923 3.30517
lclavicle 8.82029e-015 -2.5345e-015
lhumerus 69.5301 7.89254 34.7553
lradius 60.3198
lwrist 0.151945
lhand 29.9675 43.3259
lfingers 7.12502
lthumb 53.6777 62.3795
rfemur -6.49592 -0.123332 15.862
rtibia 28.4421
rfoot -17.9529 -17.3998
rtoes -18.1943
lfemur -4.49038 -0.529445 -21.0115
ltibia 26.1767
lfoot -20.7205 10.2467
ltoes -18.0108
1438
root 0.220298 17.8364 0.152921 -1.15735 -2.9113 1.90573
lowerback 3.71347 1.89287 -1.60727
upperback 0.065863 2.44325 -0.513334
thorax -2.05744 1.23225 0.239931
lowerneck -7.46674 -4.28414 -4.7566
upperneck 24.9252 -5.50274 1.18756
head 9.21406 -2.89258 0.654522
rclavicle -1.23017e-014 1.21756e-015
rhumerus 69.2021 -12.6295 -27.9391
rradius 47.726
rwrist -16.56
rhand 52.547 -7.0471
rfingers 7.12502
rthumb 71.5224 2.80943
lclavicle -1.23017e-014 1.21756e-015
lhumerus 69.9302 8.94862 34.6174
lradius 60.2081
lwrist 0.111591
lhand 29.7259 43.3708
lfingers 7.12502
lthumb 53.4603 62.5673
rfemur -6.26403 0.0799821 15.9343
rtibia 28.0701
rfoot -17.767 -17.6465
rtoes -18.8547
lfemur -4.2765 -0.619237 -20.9883
ltibia 25.8105
lfoot -20.6784 10.3777
ltoes -17.4216
1439
root 0.219311 17.8454 0.186071 -1.13738 -2.93089 1.80309
lowerback 3.66865 1.91645 -1.43645
upperback -0.148143 2.48042 -0.519552
thorax -2.24528 1.25076 0.132872
lowerneck -7.3499 -4.26819 -4.83001
upperneck 25.1877 -5.49834 1.2665
head 9.28902 -2.8911 0.694829
rclavicle -4.18001e-015 1.32937e-015
rhumerus 69.4639 -13.4583 -28.2517
rradius 47.7315
rwrist -16.3495
rhand 52.2753 -6.9165
rfingers 7.12502
rthumb 71.3647 2.28071
lclavicle -4.18001e-015 1.32937e-015
lhumerus 70.255 9.77956 34.5627
lradius 60.0937
lwrist 0.256764
lhand 29.359 43.3803
lfingers 7.12502
lthumb 53.1298 62.7902
rfemur -5.9542 0.241744 16.0803
rtibia 27.6951
rfoot -17.6481 -17.8417
rtoes -18.7859
lfemur -3.99579 -0.712654 -20.8915
ltibia 25.4608
lfoot -20.6219 10.5787
ltoes -17.2899
1440
root 0.219804 17.8523 0.219188 -1.11861 -2.90849 1.77125
lowerback 3.60724 1.91437 -1.33531
upperback -0.382917 2.48034 -0.538037
thorax -2.44705 1.25103 0.0543254
lowerneck -7.0487 -4.25525 -4.76272
upperneck 25.2944 -5.48412 1.16556
head 9.26423 -2.89187 0.656812
rclavicle -2.51662e-014 -9.80257e-015
rhumerus 69.7149 -14.2072 -28.4725
rradius 47.7179
rwrist -16.2603
rhand 52.2463 -6.83592
rfingers 7.12502
rthumb 71.3478 2.29176
lclavicle -2.51662e-014 -9.80257e-015
lhumerus 70.483 10.5768 34.4544
lradius 60.0435
lwrist 0.541784
lhand 29.039 43.4342
lfingers 7.12502
lthumb 52.841 63.0268
rfemur -5.65964 0.349191 16.1287
rtibia 27.3429
rfoot -17.815 -17.7241
rtoes -16.93
lfemur -3.70561 -0.795819 -20.8739
ltibia 25.1265
lfoot -20.5201 10.7045
ltoes -17.4707
1441
root 0.220677 17.8571 0.253688 -1.12032 -2.86524 1.84026
lowerback 3.53118 1.88328 -1.38011
upperback -0.528952 2.43621 -0.561142
thorax -2.55492 1.23043 0.0576249
lowerneck -7.04607 -4.23108 -4.6672
upperneck 25.4639 -5.43865 1.03881
head 9.31514 -2.87578 0.600832
rclavicle 5.53724e-015 -1.23743e-014
rhumerus 70.0678 -15.0093 -28.6422
rradius 47.7299
rwrist -16.25
rhand 52.3016 -6.67021
rfingers 7.12502
rthumb 71.3801 2.59034
lclavicle 5.53724e-015 -1.23743e-014
lhumerus 70.7703 11.5352 34.5077
lradius 60.0589
lwrist 0.20424
lhand 29.197 43.1231
lfingers 7.12502
lthumb 52.9835 62.6259
rfemur -5.3462 0.417415 16.0624
rtibia 27.0296
rfoot -18.0032 -17.6734
rtoes -15.9984
lfemur -3.38816 -0.924976 -20.9805
ltibia 24.7825
lfoot -20.5121 10.7541
ltoes -17.2722
1442
root 0.221025 17.858 0.286164 -1.13122 -2.82259 1.8383
lowerback 3.47171 1.85464 -1.34325
upperback -0.619886 2.40002 -0.552701
thorax -2.61346 1.21248 0.0478885
lowerneck -7.34051 -4.22763 -4.84982
upperneck 25.886 -5.42285 1.14456
head 9.52956 -2.87378 0.658787
rclavicle 2.01374e-014 2.39784e-015
rhumerus 70.4983 -15.8728 -28.8098
rradius 47.7045
rwrist -16.1585
rhand 52.4845 -6.3337
rfingers 7.12502
rthumb 71.4864 3.37015
lclavicle 2.01374e-014 2.39784e-015
lhumerus 71.0945 12.5611 34.5336
lradius 60.0301
lwrist -0.0376823
lhand 29.1315 42.8382
lfingers 7.12502
lthumb 52.9244 62.3783
rfemur -5.05782 0.485176 16.0781
rtibia 26.7689
rfoot -17.955 -17.8063
rtoes -16.2244
lfemur -3.0326 -1.08287 -21.0172
ltibia 24.4161
lfoot -20.6207 10.7839
ltoes -17.7989
1443
root 0.221523 17.8583 0.318649 -1.14837 -2.81649 1.77139
lowerback 3.39306 1.85753 -1.20163
upperback -0.701446 2.41034 -0.566176
thorax -2.64681 1.2158 -0.0445801
lowerneck -7.58732 -4.23743 -4.95486
upperneck 26.2928 -5.43881 1.24271
head 9.72925 -2.88027 0.699523
rclavicle 1.22084e-014 -9.64727e-015
rhumerus 70.8577 -16.7582 -29.0254
rradius 47.7137
rwrist -16.0427
rhand 52.5725 -6.36424
rfingers 7.12502
rthumb 71.5371 3.55477
lclavicle 1.22084e-014 -9.64727e-015
lhumerus 71.39 13.5285 34.2586
lradius 59.9366
lwrist 0.389664
lhand 28.5471 43.1386
lfingers 7.12502
lthumb 52.3961 63.006
rfemur -4.79261 0.625239 16.1638
rtibia 26.5393
rfoot -17.9626 -17.9937
rtoes -16.6177
lfemur -2.66865 -1.18971 -20.9764
ltibia 24.0417
lfoot -20.5718 10.9619
ltoes -18.9396
1444
root 0.222879 17.8601 0.352249 -1.19797 -2.81361 1.83926
lowerback 3.3523 1.87703 -1.18519
upperback -0.800716 2.43522 -0.625387
thorax -2.72305 1.22797 -0.116702
lowerneck -7.65968 -4.24432 -4.87991
upperneck 26.5497 -5.44786 1.1826
head 9.83163 -2.88398 0.661341
rclavicle 4.86257e-015 -1.53359e-016
rhumerus 71.1087 -17.581 -29.1373
rradius 47.7863
rwrist -16.1068
rhand 52.4565 -6.68189
rfingers 7.12502
rthumb 71.4702 2.95388
lclavicle 4.86257e-015 -1.53359e-016
lhumerus 71.7058 14.4063 34.0475
lradius 59.842
lwrist 0.683905
lhand 27.6768 43.328
lfingers 7.12502
lthumb 51.6067 63.6644
rfemur -4.49898 0.731693 16.0864
rtibia 26.3218
rfoot -18.1234 -18.0766
rtoes -16.5951
lfemur -2.29266 -1.30115 -21.0932
ltibia 23.6659
lfoot -20.455 11.2037
ltoes -19.3665
